<?xml version="1.0" encoding="UTF-8"?>
<!DOCTYPE svg PUBLIC "-//W3C//DTD SVG 1.1//EN" "http://www.w3.org/Graphics/SVG/1.1/DTD/svg11.dtd">
<!-- Creator: CorelDRAW 2021 (64-Bit) -->
<svg xmlns="http://www.w3.org/2000/svg" xml:space="preserve" width="88.8937mm" height="20.6889mm" version="1.1" style="shape-rendering:geometricPrecision; text-rendering:geometricPrecision; image-rendering:optimizeQuality; fill-rule:evenodd; clip-rule:evenodd"
viewBox="0 0 5831.28 1357.16"
 xmlns:xlink="http://www.w3.org/1999/xlink"
 xmlns:xodm="http://www.corel.com/coreldraw/odm/2003">
 <defs>
  <style type="text/css">
   <![CDATA[
    .fil0 {fill:white}
    .fil2 {fill:black;fill-rule:nonzero}
    .fil1 {fill:black;fill-rule:nonzero}
   ]]>
  </style>
 </defs>
 <g id="Capa_x0020_1">
  <metadata id="CorelCorpID_0Corel-Layer"/>
  <g>
   <path class="fil0" d="M612.01 46.5l4954.83 0c164.8,0 262.57,134.84 217.26,299.64l-182.8 664.86c-45.32,164.82 -217.22,299.65 -382.03,299.65l-4954.83 0c-164.82,0 -262.58,-134.84 -217.27,-299.65l182.8 -664.86c45.32,-164.8 217.23,-299.64 382.04,-299.64z"/>
   <path id="_1" class="fil1" d="M5566.79 93.01l-4954.83 0 0.1 -93.01 4954.83 0 0 0 -0.1 93.01zm251.38 268.59l-68.14 -30.91 0 0 3.17 -12.72 2.45 -12.38 1.77 -12.03 1.11 -11.67 0.49 -11.31 -0.12 -10.98 -0.69 -10.62 -1.26 -10.31 -1.8 -10.03 -2.32 -9.72 -2.85 -9.42 -3.37 -9.18 -3.9 -8.91 -4.42 -8.64 -4.97 -8.38 -5.51 -8.12 -6.05 -7.82 -6.61 -7.52 -7.14 -7.18 -7.71 -6.83 -8.26 -6.45 -8.81 -6.04 -9.35 -5.6 -9.89 -5.13 -10.41 -4.63 -10.94 -4.1 -11.45 -3.55 -11.94 -2.97 -12.41 -2.35 -12.9 -1.71 -13.36 -1.04 -13.8 -0.35 0.1 -93.01 16.7 0.43 16.33 1.28 15.95 2.12 15.56 2.94 15.15 3.77 14.69 4.56 14.28 5.35 13.81 6.14 13.33 6.91 12.82 7.68 12.31 8.44 11.76 9.18 11.19 9.91 10.61 10.65 9.98 11.36 9.33 12.06 8.63 12.73 7.92 13.38 7.18 14.02 6.38 14.6 5.58 15.15 4.72 15.66 3.85 16.12 2.95 16.5 2.05 16.87 1.12 17.18 0.18 17.41 -0.75 17.62 -1.7 17.77 -2.62 17.87 -3.56 17.95 -4.49 17.99 0 0zm-250.94 633.95l182.8 -664.86 68.14 30.91 -182.8 664.86 0 0 -68.14 -30.91zm-348.01 361.61l0.1 -93.01 0 0 14.06 -0.35 14.1 -1.06 14.15 -1.75 14.14 -2.42 14.13 -3.09 14.1 -3.73 14.01 -4.35 13.91 -4.97 13.78 -5.56 13.62 -6.14 13.44 -6.68 13.24 -7.24 13 -7.75 12.73 -8.23 12.44 -8.71 12.13 -9.16 11.79 -9.6 11.41 -10 11.02 -10.37 10.59 -10.73 10.15 -11.07 9.68 -11.37 9.19 -11.64 8.67 -11.9 8.13 -12.11 7.56 -12.31 7 -12.48 6.4 -12.6 5.78 -12.71 5.16 -12.79 4.51 -12.84 3.88 -12.89 68.14 30.91 -5.36 17.84 -6.15 17.48 -6.9 17.12 -7.6 16.72 -8.29 16.34 -8.91 15.9 -9.53 15.51 -10.12 15.07 -10.67 14.63 -11.18 14.19 -11.69 13.73 -12.17 13.26 -12.61 12.78 -13.04 12.29 -13.45 11.77 -13.82 11.25 -14.18 10.71 -14.52 10.17 -14.83 9.6 -15.11 8.99 -15.38 8.4 -15.63 7.79 -15.86 7.14 -16.05 6.48 -16.24 5.8 -16.39 5.1 -16.52 4.38 -16.65 3.64 -16.74 2.87 -16.81 2.08 -16.86 1.26 -16.88 0.43 0 0zm-4954.73 -93.01l4954.83 0 -0.1 93.01 -4954.83 0 0 0 0.1 -93.01zm-251.39 -268.61l68.14 30.91 0 0 -3.17 12.73 -2.45 12.37 -1.76 12.02 -1.11 11.66 -0.49 11.33 0.12 10.97 0.7 10.64 1.25 10.31 1.79 10 2.33 9.72 2.85 9.44 3.37 9.17 3.9 8.91 4.43 8.65 4.97 8.38 5.5 8.11 6.06 7.83 6.6 7.52 7.14 7.18 7.72 6.83 8.26 6.45 8.81 6.04 9.35 5.6 9.89 5.13 10.41 4.63 10.94 4.09 11.46 3.56 11.93 2.97 12.42 2.35 12.9 1.71 13.36 1.04 13.8 0.35 -0.1 93.01 -16.7 -0.43 -16.33 -1.28 -15.95 -2.12 -15.57 -2.94 -15.15 -3.77 -14.7 -4.55 -14.28 -5.35 -13.81 -6.14 -13.33 -6.91 -12.82 -7.68 -12.31 -8.44 -11.76 -9.18 -11.18 -9.91 -10.62 -10.65 -9.97 -11.36 -9.33 -12.05 -8.65 -12.74 -7.92 -13.38 -7.17 -14.01 -6.38 -14.6 -5.58 -15.15 -4.72 -15.66 -3.85 -16.11 -2.96 -16.52 -2.05 -16.87 -1.12 -17.17 -0.18 -17.4 0.75 -17.61 1.69 -17.76 2.63 -17.89 3.56 -17.95 4.49 -18 0 0zm250.94 -633.95l-182.8 664.86 -68.14 -30.91 182.8 -664.86 0 0 68.14 30.91zm348.02 -361.6l-0.1 93.01 0 0 -14.06 0.35 -14.1 1.06 -14.15 1.75 -14.14 2.42 -14.13 3.09 -14.1 3.73 -14.01 4.36 -13.91 4.97 -13.78 5.56 -13.62 6.14 -13.44 6.69 -13.24 7.24 -13 7.73 -12.73 8.24 -12.45 8.72 -12.13 9.16 -11.77 9.6 -11.42 10 -11.02 10.38 -10.6 10.73 -10.15 11.07 -9.68 11.36 -9.18 11.64 -8.67 11.9 -8.13 12.11 -7.56 12.3 -7 12.48 -6.4 12.59 -5.78 12.71 -5.16 12.79 -4.51 12.84 -3.88 12.88 -68.14 -30.91 5.36 -17.83 6.15 -17.49 6.9 -17.11 7.6 -16.73 8.29 -16.33 8.91 -15.91 9.53 -15.5 10.12 -15.07 10.67 -14.63 11.19 -14.2 11.69 -13.72 12.16 -13.26 12.62 -12.78 13.04 -12.28 13.44 -11.77 13.82 -11.25 14.19 -10.72 14.51 -10.16 14.83 -9.59 15.11 -9.01 15.38 -8.4 15.63 -7.78 15.86 -7.14 16.05 -6.48 16.24 -5.81 16.4 -5.09 16.52 -4.38 16.65 -3.64 16.74 -2.87 16.81 -2.08 16.86 -1.26 16.88 -0.43 0 0z"/>
  </g>
  <path class="fil2" d="M1143.42 990.29l-86.3 -164.55c-8.6,-16.39 -16.79,-29.9 -24.86,-40.83 -7.92,-11.06 -16.25,-19.8 -24.71,-26.35 -8.47,-6.42 -17.62,-11.2 -27.32,-13.93 -9.83,-2.87 -20.62,-4.23 -32.64,-4.23l-63.09 0 0 249.89 -53.25 0 0 -573.52 165.09 0c21.58,0 42.47,3.14 62.67,9.56 20.07,6.42 37.96,15.84 53.67,28.4 15.7,12.56 28.4,28.27 37.82,47.11 9.43,18.98 14.2,40.97 14.2,65.95 0,20.21 -3,38.92 -9.14,55.99 -6.15,16.93 -14.88,32.09 -26.22,45.34 -11.34,13.11 -24.99,24.3 -41.1,33.46 -16.25,9.28 -34.41,16.11 -54.62,20.62l0 1.64c7.78,3.14 14.75,7.37 21.16,12.42 6.42,5.06 12.56,11.2 18.57,18.44 6.01,7.1 11.88,15.43 17.75,24.71 5.87,9.43 12.02,20.07 18.3,32.09l96.27 177.79 -62.27 0zm-258.9 -524.36l0 226.13 95.04 0c19.25,0 36.74,-2.73 52.71,-8.33 15.98,-5.6 29.64,-13.65 40.97,-24.03 11.34,-10.25 20.07,-22.81 26.36,-37.42 6.28,-14.61 9.42,-31.13 9.42,-49.43 0,-33.32 -10.65,-59.4 -32.09,-78.38 -21.44,-18.98 -52.43,-28.54 -92.99,-28.54l-99.41 0z"/>
  <path id="_1_0" class="fil2" d="M1319.16 998.49c-10.65,0 -19.8,-3.69 -27.17,-11.2 -7.51,-7.37 -11.2,-16.52 -11.2,-27.17 0,-10.79 3.69,-20.07 10.92,-27.45 7.37,-7.51 16.52,-11.2 27.45,-11.2 5.33,0 10.24,0.95 14.88,3 4.64,2.05 8.74,4.64 12.16,7.92 3.55,3.41 6.28,7.37 8.46,12.16 2.05,4.91 3.14,10.1 3.14,15.57 0,5.32 -1.1,10.38 -3.14,15.02 -2.18,4.64 -4.91,8.74 -8.46,12.16 -3.42,3.41 -7.51,6.15 -12.16,8.19 -4.64,2.05 -9.56,3 -14.88,3z"/>
  <path id="_2" class="fil2" d="M1905.23 950.42c-58.99,33.18 -121.53,49.7 -187.49,49.7 -41.65,0 -79.06,-7.1 -112.25,-21.44 -33.04,-14.2 -61.31,-34.14 -84.52,-59.54 -23.22,-25.54 -41.1,-55.85 -53.53,-91.22 -12.42,-35.36 -18.56,-74.15 -18.56,-116.61 0,-27.99 3,-54.89 9.01,-80.84 6.01,-25.81 14.88,-50.12 26.49,-72.78 11.61,-22.67 25.81,-43.15 42.61,-61.58 16.93,-18.44 36.18,-34.28 57.9,-47.52 21.85,-13.38 45.88,-23.63 71.96,-30.86 26.22,-7.24 54.49,-10.78 84.66,-10.78 56.81,0 107.61,10.1 152.26,30.31l0 58.72c-49.16,-27.18 -102.01,-40.69 -158.68,-40.69 -35.1,0 -66.63,6.42 -95.04,19.25 -28.27,12.7 -52.44,30.31 -72.37,52.71 -19.8,22.4 -35.23,48.88 -46.29,79.47 -10.92,30.59 -16.52,63.63 -16.79,99.41 -0.28,35.5 4.37,68.27 13.8,98.18 9.56,30.04 23.62,55.99 42.33,77.83 18.7,21.85 41.78,38.92 69.23,51.21 27.58,12.29 59.41,18.43 95.45,18.43 48.61,0 90.81,-10.11 126.59,-30.45l0 -175.2 -130.27 0 0 -48.34 183.52 0 0 252.63z"/>
  <polygon id="_3" class="fil2" points="2091.08,990.29 2037.83,990.29 2037.83,416.77 2091.08,416.77 "/>
  <path id="_4" class="fil2" d="M2218.07 906.18c9.56,7.24 20.21,13.66 31.82,19.39 11.47,5.73 23.35,10.52 35.5,14.48 12.02,3.82 24.3,6.69 36.46,8.74 12.29,2.05 24.04,3 35.23,3 43.29,0 75.79,-8.33 97.36,-25.12 21.58,-16.8 32.36,-40.83 32.36,-72.24 0,-15.16 -2.59,-28.54 -7.65,-39.88 -5.05,-11.33 -12.83,-21.84 -23.48,-31.82 -10.79,-9.83 -24.17,-19.66 -40.42,-29.36 -16.25,-9.7 -35.5,-20.76 -57.62,-33.05 -24.44,-13.38 -45.47,-25.94 -62.95,-37.82 -17.48,-11.88 -31.68,-24.04 -42.74,-36.46 -11.06,-12.42 -19.25,-25.81 -24.44,-40.15 -5.19,-14.48 -7.79,-30.86 -7.79,-49.3 0,-23.21 4.92,-43.97 14.75,-62.4 9.97,-18.43 23.22,-34.14 40.02,-46.98 16.79,-12.97 36.46,-22.94 58.99,-29.9 22.53,-6.97 46.57,-10.38 72.1,-10.38 45.06,0 82.88,6.28 113.2,18.84l0 58.72c-33.86,-19.52 -73.46,-29.22 -119.07,-29.22 -17.07,0 -33.04,2.05 -48.2,6.14 -15.02,4.24 -28.13,10.25 -39.46,18.3 -11.34,8.06 -20.35,18.02 -26.76,29.91 -6.55,11.88 -9.83,25.67 -9.83,41.37 0,15.02 2.18,27.85 6.56,38.64 4.5,10.78 11.47,21.03 21.3,30.59 9.7,9.7 22.4,19.25 38.37,28.67 15.84,9.42 35.23,20.35 58.17,32.64 23.9,12.84 44.92,25.26 62.67,37.42 17.89,12.16 32.77,24.86 44.65,37.96 11.88,13.24 20.76,27.31 26.63,42.06 5.87,14.88 8.74,31.27 8.74,49.43 0,25.12 -4.64,47.11 -13.93,66.23 -9.43,19.12 -22.4,34.96 -39.19,47.52 -16.8,12.42 -36.74,21.98 -59.94,28.4 -23.22,6.42 -48.61,9.56 -76.33,9.56 -9.01,0 -19.8,-0.68 -32.37,-2.18 -12.56,-1.5 -25.12,-3.69 -37.96,-6.42 -12.83,-2.87 -24.99,-6.28 -36.59,-10.1 -11.61,-3.96 -20.89,-8.19 -28.14,-12.7l0 -62.54z"/>
  <path id="_5" class="fil2" d="M2714.7 767.44l0 222.85 -53.25 0 0 -573.52 148.15 0c30.18,0 56.81,3.69 80.02,11.2 23.22,7.51 42.88,18.3 58.85,32.5 16.11,14.06 28.27,31.4 36.46,52.03 8.32,20.48 12.42,43.97 12.42,70.46 0,26.63 -4.64,51.21 -14.06,73.74 -9.29,22.66 -22.67,42.06 -40.15,58.44 -17.48,16.52 -38.78,29.22 -63.91,38.51 -25.12,9.15 -53.53,13.8 -85.21,13.8l-79.33 0zm0 -301.51l0 252.35 76.06 0c49.29,0 86.85,-11.47 112.51,-34.28 25.54,-22.94 38.38,-55.31 38.38,-97.09 0,-80.71 -47.25,-120.99 -141.75,-120.99l-85.21 0z"/>
  <path id="_6" class="fil2" d="M3223.64 1064.85c-16.12,40.01 -34.41,69.64 -55.31,89.03 -20.76,19.25 -46.02,28.95 -75.51,28.95 -14.75,0 -27.04,-1.78 -37.28,-5.19l0 -47.93c5.87,2.19 11.88,3.69 17.75,4.78 6.01,1.1 12.16,1.64 18.16,1.64 16.8,0 31.41,-5.33 43.84,-15.84 12.29,-10.52 23.07,-26.49 32.08,-47.79l35.51 -84.11 -157.31 -407.75 56.81 0 117.16 324.45c1.64,4.37 3.14,9.14 4.64,14.61 1.5,5.46 2.87,10.92 4.23,16.25l1.92 0c1.36,-4.51 2.59,-9.15 3.82,-13.79 1.23,-4.64 2.87,-9.83 5.05,-15.44l124.39 -326.08 53.94 0 -193.9 484.21z"/>
  <path id="_7" class="fil2" d="M3666.74 985.24c-17.61,8.88 -36.74,13.24 -57.49,13.24 -65.95,0 -99,-38.1 -99,-114.29l0 -258.5 -72.1 0 0 -45.06 72.1 0 0 -102.83 51.62 -16.79 0 119.62 104.87 0 0 45.06 -104.87 0 0 250.3c0,27.72 4.51,47.66 13.52,59.94 9.01,12.16 24.17,18.3 45.74,18.3 15.84,0 31,-4.78 45.61,-14.33l0 45.34z"/>
  <path id="_8" class="fil2" d="M4027.92 990.29l0 -241.15c0,-45.88 -8.19,-79.74 -24.71,-101.45 -16.52,-21.71 -42.2,-32.64 -77.02,-32.64 -16.39,0 -32.09,3.27 -46.98,9.96 -14.88,6.69 -27.99,16.39 -39.05,28.82 -11.2,12.56 -20.07,27.85 -26.76,45.88 -6.69,18.03 -9.97,38.37 -9.97,61.18l0 229.4 -51.61 0 0 -606.29 51.61 0 0 267.23 1.64 0c31.95,-53.67 77.7,-80.43 137.37,-80.43 45.61,0 79.89,14.06 102.69,42.06 22.94,27.99 34.41,69.36 34.41,123.99l0 253.44 -51.62 0z"/>
  <path id="_9" class="fil2" d="M4369.44 1000.13c-30.31,0 -57.62,-5.05 -81.66,-15.16 -24.17,-10.24 -44.78,-24.58 -61.85,-43.15 -17.08,-18.57 -30.04,-40.69 -39.06,-66.63 -9.15,-25.94 -13.66,-54.62 -13.66,-86.16 0,-34.14 4.78,-64.73 14.34,-91.63 9.7,-27.04 23.35,-49.84 40.97,-68.69 17.75,-18.84 39.19,-33.18 64.18,-43.01 25.12,-9.96 53.12,-14.88 83.98,-14.88 29.62,0 56.25,4.92 79.87,14.62 23.76,9.7 43.83,23.89 60.36,42.19 16.52,18.43 29.22,40.97 37.96,67.32 8.88,26.5 13.24,56.53 13.24,90.13 0,32.09 -4.64,61.18 -13.79,87.53 -9.15,26.36 -22.26,48.89 -39.33,67.87 -17.07,18.98 -37.82,33.59 -62.4,44.11 -24.44,10.38 -52.16,15.57 -83.16,15.57zm4.1 -385.08c-22.53,0 -42.74,3.82 -60.9,11.6 -18.16,7.79 -33.73,18.98 -46.7,33.87 -12.98,14.75 -22.94,32.9 -29.91,54.48 -6.97,21.44 -10.38,45.89 -10.38,73.06 0,25.67 3.41,48.75 10.38,69.23 6.97,20.62 16.79,38.23 29.49,52.98 12.7,14.61 28.13,25.94 46.29,33.72 18.16,7.92 38.37,11.88 60.9,11.88 22.94,0 43.28,-3.82 60.89,-11.47 17.61,-7.51 32.5,-18.57 44.79,-33.19 12.29,-14.61 21.58,-32.36 27.85,-53.53 6.28,-21.02 9.43,-45.06 9.43,-72.1 0,-55.16 -12.29,-97.5 -36.87,-126.72 -24.58,-29.22 -59.67,-43.83 -105.27,-43.83z"/>
  <path id="_10" class="fil2" d="M4948.41 990.29l0 -236.23c0,-92.72 -33.46,-139.01 -100.5,-139.01 -17.76,0 -34.28,3.55 -49.43,10.65 -15.16,7.1 -28.27,16.8 -39.33,29.36 -10.92,12.56 -19.67,27.45 -25.81,44.65 -6.28,17.21 -9.43,35.92 -9.43,55.85l0 234.73 -51.61 0 0 -409.66 51.61 0 0 71 1.64 0c30.31,-53.94 76.06,-80.84 136.96,-80.84 44.79,0 78.93,14.48 102.41,43.56 23.35,29.09 35.1,71.14 35.1,126.17l0 249.75 -51.62 0z"/>
 </g>
</svg>
